<svg width="676" height="228" viewBox="0 0 676 228" fill="none" xmlns="http://www.w3.org/2000/svg">
<rect width="676" height="228" fill="white"/>
<path d="M486 188V118H506V148H516V138H526V128H536V118H556V128H546V138H536V148H526V158H536V168H546V178H556V188H526V178H516V168H506V188H486Z" fill="#393838"/>
<path d="M416 188V178H406V128H416V118H466V128H476V178H466V188H416ZM426 178H456V128H426V178Z" fill="#393838"/>
<path d="M336 188V178H326V128H336V118H386V128H396V178H386V188H336ZM346 178H376V128H346V178Z" fill="#393838"/>
<path d="M246 188V118H306V128H316V148H306V158H316V178H306V188H246ZM266 148H296V128H266V148ZM266 178H296V158H266V178Z" fill="#393838"/>
<path d="M566 108V38H636V48H586V68H626V78H586V98H636V108H566Z" fill="#04A95B"/>
<path d="M486 108V38H506V48H516V58H526V68H536V38H556V108H536V88H526V78H516V68H506V108H486Z" fill="#04A95B"/>
<path d="M416 108V98H406V48H416V38H466V48H476V98H466V108H416ZM426 98H456V48H426V98Z" fill="#04A95B"/>
<path d="M326 108V38H346V68H376V38H396V108H376V78H346V108H326Z" fill="#04A95B"/>
<path d="M246 108V38H306V48H316V78H306V88H266V108H246ZM266 78H296V48H266V78Z" fill="#04A95B"/>
<rect x="41" y="27" width="173" height="173" rx="60" fill="#04A95B"/>
<path d="M74 168V60H166.571V75.4286H182V121.714H166.571V137.143H104.857V168H74ZM104.857 121.714H151.143V75.4286H104.857V121.714Z" fill="white"/>
</svg>
